<svg xmlns="http://www.w3.org/2000/svg" version="1.1" xmlns:xlink="http://www.w3.org/1999/xlink" xmlns:svgjs="http://svgjs.dev/svgjs" width="1500" height="1500" viewBox="0 0 1500 1500"><rect width="1500" height="1500" fill="#ffffff"></rect><g transform="matrix(0.6666666666666666,0,0,0.6666666666666666,248.75812259657636,400.8774193548387)"><svg viewBox="0 0 356 248" data-background-color="#ffffff" preserveAspectRatio="xMidYMid meet" height="1044" width="1500" xmlns="http://www.w3.org/2000/svg" xmlns:xlink="http://www.w3.org/1999/xlink"><g id="tight-bounds" transform="matrix(1,0,0,1,0.4421083556188137,0.4000000000000057)"><svg viewBox="0 0 355.1157832887624 247.2" height="247.2" width="355.1157832887624"><g><svg viewBox="0 0 395.52 275.3258193553629" height="247.2" width="355.1157832887624"><g transform="matrix(1,0,0,1,0,201.60799958727182)"><svg viewBox="0 0 395.52 73.71781976809106" height="73.71781976809106" width="395.52"><g id="textblocktransform"><svg viewBox="0 0 395.52 73.71781976809106" height="73.71781976809106" width="395.52" id="textblock"><g><svg viewBox="0 0 395.52 47.149901238002506" height="47.149901238002506" width="395.52"><g transform="matrix(1,0,0,1,0,0)"><svg width="395.52" viewBox="3.78 -33.48 359.41 42.86" height="47.149901238002506" data-palette-color="#551e19"><path d="M3.78 0L3.78-31.95 10.08-31.95 23.05-4.45 23.35-4.45 23.18-18.4 23.18-31.95 27.23-31.95 27.23 0 21.08 0 7.95-27.73 7.65-27.73 7.83-13.13 7.83 0 3.78 0ZM44 0.63L44 0.63Q38.75 0.63 36.03-2.21 33.32-5.05 33.32-10.38L33.32-10.38 33.32-14.1Q33.32-19.4 36.05-22.23 38.77-25.05 44-25.05L44-25.05Q49.25-25.05 51.96-22.23 54.67-19.4 54.67-14.1L54.67-14.1 54.67-10.38Q54.67-5.05 51.96-2.21 49.25 0.63 44 0.63ZM44-2.68L44-2.68Q47.25-2.68 48.94-4.6 50.62-6.53 50.62-10.15L50.62-10.15 50.62-14.33Q50.62-17.93 48.94-19.84 47.25-21.75 44-21.75L44-21.75Q40.77-21.75 39.07-19.84 37.37-17.93 37.37-14.33L37.37-14.33 37.37-10.15Q37.37-6.53 39.07-4.6 40.77-2.68 44-2.68ZM80.67-15.63L80.67 0 76.62 0 76.62-15.18Q76.62-17.15 76.08-18.57 75.55-20 74.33-20.79 73.12-21.58 71.02-21.58L71.02-21.58Q69.09-21.58 67.68-20.85 66.27-20.13 65.4-18.89 64.52-17.65 64.17-16.07L64.17-16.07 63.45-18.95 64.32-18.95Q64.72-20.6 65.72-21.96 66.72-23.33 68.41-24.14 70.09-24.95 72.55-24.95L72.55-24.95Q75.45-24.95 77.23-23.85 79.02-22.75 79.84-20.69 80.67-18.63 80.67-15.63L80.67-15.63ZM64.34-18.32L64.34 0 60.3 0 60.3-24.4 64.34-24.4 64.17-18.55 64.34-18.32ZM96.44-7.3L96.44-7.3Q91.47-7.3 88.81-9.47 86.14-11.65 86.14-15.7L86.14-15.7 86.14-16.32Q86.14-18.85 87.18-20.73 88.22-22.6 90.49-23.66 92.77-24.73 96.44-24.83L96.44-24.83 108.89-25.23 108.89-22.03 101.54-22.28 101.52-22.1Q103.24-21.75 104.34-20.9 105.44-20.05 105.98-18.78 106.52-17.5 106.52-15.8L106.52-15.8 106.52-15.25Q106.52-11.38 103.97-9.34 101.42-7.3 96.44-7.3ZM96.27 6.15L96.27 6.15 96.84 6.15Q99.09 6.15 100.71 5.81 102.32 5.48 103.19 4.75 104.07 4.03 104.07 2.83L104.07 2.83 104.07 2.73Q104.07 1.33 103.06 0.59 102.04-0.15 99.59-0.38L99.59-0.38 92.69-1 93.84-1.05Q92.44-0.85 91.38-0.4 90.32 0.05 89.72 0.79 89.12 1.53 89.12 2.63L89.12 2.63 89.12 2.68Q89.12 3.95 89.99 4.73 90.87 5.5 92.47 5.83 94.07 6.15 96.27 6.15ZM96.77 9.38L96.77 9.38 96.04 9.38Q92.74 9.38 90.36 8.81 87.97 8.25 86.66 6.99 85.34 5.73 85.34 3.6L85.34 3.6 85.34 3.5Q85.34 2 86.06 1 86.77 0 87.98-0.58 89.19-1.15 90.69-1.35L90.69-1.35 90.67-1.5Q88.62-1.85 87.64-2.71 86.67-3.58 86.67-4.95L86.67-4.95 86.67-4.98Q86.67-5.93 87.11-6.6 87.54-7.28 88.43-7.68 89.32-8.08 90.69-8.18L90.69-8.18 90.69-8.68 95.34-7.5 93.44-7.55Q91.74-7.53 91.09-7.14 90.44-6.75 90.44-5.98L90.44-5.98 90.44-5.95Q90.44-5.13 91.37-4.7 92.29-4.28 94.52-4.03L94.52-4.03 100.44-3.43Q104.32-3.03 106.09-1.56 107.87-0.1 107.87 2.75L107.87 2.75 107.87 2.88Q107.87 5.15 106.52 6.6 105.17 8.05 102.69 8.71 100.22 9.38 96.77 9.38ZM96.39-10.3L96.39-10.3Q98.49-10.3 99.88-10.91 101.27-11.53 101.98-12.76 102.69-14 102.69-15.8L102.69-15.8 102.69-16.4Q102.69-18.15 102.01-19.38 101.32-20.6 99.94-21.24 98.57-21.88 96.49-21.88L96.49-21.88 96.34-21.88Q94.09-21.88 92.68-21.19 91.27-20.5 90.63-19.26 89.99-18.03 89.99-16.38L89.99-16.38 89.99-15.8Q89.99-14 90.71-12.78 91.42-11.55 92.84-10.93 94.27-10.3 96.39-10.3ZM121.74-13.6L133.27 0 128.42 0 118.77-11.38 116.19-11.38 116.19-14.53 118.77-14.53 128.02-24.4 132.82-24.4 121.74-12.63 121.74-13.6ZM116.59-33.13L116.59 0 112.57 0 112.57-33.13 116.59-33.13ZM141.14-14.93L141.14-14.93 140.21-18.05 141.21-18.1Q142.01-21.2 143.96-22.99 145.91-24.78 149.14-24.78L149.14-24.78Q149.94-24.78 150.58-24.65 151.21-24.53 151.71-24.35L151.71-24.35 151.96-20.43Q151.34-20.63 150.58-20.75 149.81-20.88 148.89-20.88L148.89-20.88Q146.14-20.88 144.1-19.35 142.06-17.82 141.14-14.93ZM141.34-16.9L141.34 0 137.29 0 137.29-24.4 141.24-24.4 141.04-17.2 141.34-16.9ZM165.64 0.63L165.64 0.63Q160.39 0.63 157.67-2.21 154.96-5.05 154.96-10.38L154.96-10.38 154.96-14.1Q154.96-19.4 157.69-22.23 160.41-25.05 165.64-25.05L165.64-25.05Q170.89-25.05 173.6-22.23 176.31-19.4 176.31-14.1L176.31-14.1 176.31-10.38Q176.31-5.05 173.6-2.21 170.89 0.63 165.64 0.63ZM165.64-2.68L165.64-2.68Q168.89-2.68 170.57-4.6 172.26-6.53 172.26-10.15L172.26-10.15 172.26-14.33Q172.26-17.93 170.57-19.84 168.89-21.75 165.64-21.75L165.64-21.75Q162.41-21.75 160.71-19.84 159.01-17.93 159.01-14.33L159.01-14.33 159.01-10.15Q159.01-6.53 160.71-4.6 162.41-2.68 165.64-2.68ZM202.31-15.63L202.31 0 198.26 0 198.26-15.18Q198.26-17.15 197.72-18.57 197.18-20 195.97-20.79 194.76-21.58 192.66-21.58L192.66-21.58Q190.73-21.58 189.32-20.85 187.91-20.13 187.03-18.89 186.16-17.65 185.81-16.07L185.81-16.07 185.08-18.95 185.96-18.95Q186.36-20.6 187.36-21.96 188.36-23.33 190.05-24.14 191.73-24.95 194.18-24.95L194.18-24.95Q197.08-24.95 198.87-23.85 200.66-22.75 201.48-20.69 202.31-18.63 202.31-15.63L202.31-15.63ZM185.98-18.32L185.98 0 181.93 0 181.93-24.4 185.98-24.4 185.81-18.55 185.98-18.32ZM218.08-7.3L218.08-7.3Q213.11-7.3 210.44-9.47 207.78-11.65 207.78-15.7L207.78-15.7 207.78-16.32Q207.78-18.85 208.82-20.73 209.86-22.6 212.13-23.66 214.41-24.73 218.08-24.83L218.08-24.83 230.53-25.23 230.53-22.03 223.18-22.28 223.16-22.1Q224.88-21.75 225.98-20.9 227.08-20.05 227.62-18.78 228.16-17.5 228.16-15.8L228.16-15.8 228.16-15.25Q228.16-11.38 225.61-9.34 223.06-7.3 218.08-7.3ZM217.91 6.15L217.91 6.15 218.48 6.15Q220.73 6.15 222.34 5.81 223.96 5.48 224.83 4.75 225.71 4.03 225.71 2.83L225.71 2.83 225.71 2.73Q225.71 1.33 224.69 0.59 223.68-0.15 221.23-0.38L221.23-0.38 214.33-1 215.48-1.05Q214.08-0.85 213.02-0.4 211.96 0.05 211.36 0.79 210.76 1.53 210.76 2.63L210.76 2.63 210.76 2.68Q210.76 3.95 211.63 4.73 212.51 5.5 214.11 5.83 215.71 6.15 217.91 6.15ZM218.41 9.38L218.41 9.38 217.68 9.38Q214.38 9.38 211.99 8.81 209.61 8.25 208.29 6.99 206.98 5.73 206.98 3.6L206.98 3.6 206.98 3.5Q206.98 2 207.69 1 208.41 0 209.62-0.58 210.83-1.15 212.33-1.35L212.33-1.35 212.31-1.5Q210.26-1.85 209.28-2.71 208.31-3.58 208.31-4.95L208.31-4.95 208.31-4.98Q208.31-5.93 208.74-6.6 209.18-7.28 210.07-7.68 210.96-8.08 212.33-8.18L212.33-8.18 212.33-8.68 216.98-7.5 215.08-7.55Q213.38-7.53 212.73-7.14 212.08-6.75 212.08-5.98L212.08-5.98 212.08-5.95Q212.08-5.13 213.01-4.7 213.93-4.28 216.16-4.03L216.16-4.03 222.08-3.43Q225.96-3.03 227.73-1.56 229.51-0.1 229.51 2.75L229.51 2.75 229.51 2.88Q229.51 5.15 228.16 6.6 226.81 8.05 224.33 8.71 221.86 9.38 218.41 9.38ZM218.03-10.3L218.03-10.3Q220.13-10.3 221.52-10.91 222.91-11.53 223.62-12.76 224.33-14 224.33-15.8L224.33-15.8 224.33-16.4Q224.33-18.15 223.64-19.38 222.96-20.6 221.58-21.24 220.21-21.88 218.13-21.88L218.13-21.88 217.98-21.88Q215.73-21.88 214.32-21.19 212.91-20.5 212.27-19.26 211.63-18.03 211.63-16.38L211.63-16.38 211.63-15.8Q211.63-14 212.34-12.78 213.06-11.55 214.48-10.93 215.91-10.3 218.03-10.3ZM238.83-31.95L238.83 0 234.68 0 234.68-31.95 238.83-31.95ZM253.5-16.85L253.5-13.38 237.03-13.38 237.03-16.85 253.5-16.85ZM253.88-31.95L253.88-28.48 235.88-28.48 235.88-31.95 253.88-31.95ZM263.35-24.4L263.35 0 259.3 0 259.3-24.4 263.35-24.4ZM261.33-28.4L261.33-28.4Q260.08-28.4 259.46-29.06 258.85-29.73 258.85-30.88L258.85-30.88 258.85-31Q258.85-32.18 259.46-32.83 260.08-33.48 261.33-33.48L261.33-33.48Q262.58-33.48 263.2-32.83 263.83-32.18 263.83-31L263.83-31 263.83-30.88Q263.83-29.7 263.2-29.05 262.58-28.4 261.33-28.4ZM290.42-15.63L290.42 0 286.37 0 286.37-15.18Q286.37-17.15 285.84-18.57 285.3-20 284.09-20.79 282.87-21.58 280.77-21.58L280.77-21.58Q278.85-21.58 277.44-20.85 276.02-20.13 275.15-18.89 274.27-17.65 273.92-16.07L273.92-16.07 273.2-18.95 274.07-18.95Q274.47-20.6 275.47-21.96 276.47-23.33 278.16-24.14 279.85-24.95 282.3-24.95L282.3-24.95Q285.2-24.95 286.99-23.85 288.77-22.75 289.6-20.69 290.42-18.63 290.42-15.63L290.42-15.63ZM274.1-18.32L274.1 0 270.05 0 270.05-24.4 274.1-24.4 273.92-18.55 274.1-18.32ZM304.75 0.53L304.75 0.53Q300.35 0.53 298.05-2.2 295.75-4.93 295.75-10.15L295.75-10.15 295.75-14.18Q295.75-19.43 298.07-22.19 300.4-24.95 304.92-24.95L304.92-24.95Q307.17-24.95 308.82-24.19 310.47-23.43 311.5-22.05 312.52-20.68 312.87-18.8L312.87-18.8 314.2-18.8 313-15.08Q312.92-17.23 312.03-18.69 311.15-20.15 309.63-20.9 308.12-21.65 306.17-21.65L306.17-21.65Q303.07-21.65 301.43-19.85 299.8-18.05 299.8-14.55L299.8-14.55 299.8-9.9Q299.8-6.45 301.43-4.65 303.07-2.85 306.17-2.85L306.17-2.85Q308.02-2.85 309.45-3.56 310.87-4.28 311.81-5.54 312.75-6.8 313.1-8.4L313.1-8.4 314.1-5.5 312.9-5.5Q312.55-3.85 311.56-2.48 310.57-1.1 308.91-0.29 307.25 0.53 304.75 0.53ZM316.95-33.13L316.95 0 312.9 0 313.07-5.9 313-7.2 313-17.4 313.02-18.25 312.92-25.18 312.92-33.13 316.95-33.13ZM333.79 0.55L333.79 0.55Q328.22 0.55 325.39-2.18 322.57-4.9 322.57-9.98L322.57-9.98 322.57-14.33Q322.57-19.48 325.19-22.26 327.82-25.05 332.87-25.05L332.87-25.05Q336.27-25.05 338.54-23.79 340.82-22.53 341.97-20.2 343.12-17.88 343.12-14.65L343.12-14.65 343.12-13.75Q343.12-12.95 343.06-12.15 342.99-11.35 342.89-10.58L342.89-10.58 339.17-10.58Q339.22-11.78 339.23-12.85 339.24-13.93 339.24-14.83L339.24-14.83Q339.24-17.05 338.53-18.59 337.82-20.13 336.41-20.94 334.99-21.75 332.87-21.75L332.87-21.75Q329.72-21.75 328.14-19.93 326.57-18.1 326.57-14.7L326.57-14.7 326.57-12.38 326.59-11.88 326.59-9.55Q326.59-8.03 327.04-6.8 327.49-5.58 328.46-4.69 329.42-3.8 330.91-3.34 332.39-2.88 334.44-2.88L334.44-2.88Q336.82-2.88 338.87-3.5 340.92-4.13 342.72-5.2L342.72-5.2 342.34-1.7Q340.72-0.68 338.57-0.06 336.42 0.55 333.79 0.55ZM342.04-13.63L342.04-10.58 324.69-10.58 324.69-13.63 342.04-13.63ZM352.37-14.93L352.37-14.93 351.44-18.05 352.44-18.1Q353.24-21.2 355.19-22.99 357.14-24.78 360.37-24.78L360.37-24.78Q361.17-24.78 361.8-24.65 362.44-24.53 362.94-24.35L362.94-24.35 363.19-20.43Q362.57-20.63 361.8-20.75 361.04-20.88 360.12-20.88L360.12-20.88Q357.37-20.88 355.33-19.35 353.29-17.82 352.37-14.93ZM352.57-16.9L352.57 0 348.52 0 348.52-24.4 352.47-24.4 352.27-17.2 352.57-16.9Z" opacity="1" transform="matrix(1,0,0,1,0,0)" fill="#551e19" class="wordmark-text-0" data-fill-palette-color="primary" id="text-0"></path></svg></g></svg></g><g transform="matrix(1,0,0,1,75.54432,58.28086132266519)"><svg viewBox="0 0 244.43135999999998 15.43695844542587" height="15.43695844542587" width="244.43135999999998"><g transform="matrix(1,0,0,1,0,0)"><svg width="244.43135999999998" viewBox="2.5 -37.55 792.41 50.05" height="15.43695844542587" data-palette-color="#c56e33"><path d="M5.55-32.25L2.5-32.25 2.5-35 14.55-35Q21.3-35 25.38-31.08 29.45-27.15 29.45-18.3L29.45-18.3Q29.45-9.55 26.6-5.2L26.6-5.2Q24.1-1.4 18.8-0.4L18.8-0.4Q16.45 0 13.3 0L13.3 0 2.5 0 2.5-2.75 5.55-2.75 5.55-32.25ZM14.3-32.25L14.3-32.25 8.95-32.25 8.95-2.75 13.05-2.75Q19.7-2.75 22.2-5.2L22.2-5.2Q24.85-7.75 25.6-12.1L25.6-12.1Q26.05-14.65 26.05-18.05L26.05-18.05Q26.05-25.55 22.78-28.9 19.5-32.25 14.3-32.25ZM36.75-22.5L33.4-22.5 33.4-25 40-25 40-2.5 43.75-2.5 43.75 0 33.65 0 33.65-2.5 36.75-2.5 36.75-22.5ZM38.3-31.7Q37.3-31.7 36.75-32.33 36.2-32.95 36.2-33.98 36.2-35 36.77-35.63 37.35-36.25 38.35-36.25 39.35-36.25 39.97-35.63 40.6-35 40.6-33.93 40.6-32.85 39.95-32.27 39.3-31.7 38.3-31.7ZM49.4-8.05L49.65-3.25Q51.75-2.6 53.02-2.6 54.3-2.6 54.7-2.65L54.7-2.65Q57.3-2.7 59.05-3.75 60.8-4.8 60.8-6.7 60.8-8.6 59.42-9.65 58.05-10.7 56.1-11.25 54.15-11.8 52.2-12.45 50.25-13.1 48.87-14.5 47.5-15.9 47.5-18.15L47.5-18.15Q47.5-21.35 49.95-23.28 52.4-25.2 56.15-25.2L56.15-25.2Q58.95-25.2 61.8-24.2L61.8-24.2 62.7-23.85 62.7-18.1 60.25-17.75 60.05-22Q58.05-22.3 56.7-22.3L56.7-22.3Q53.95-22.3 52.35-21.23 50.75-20.15 50.75-18.48 50.75-16.8 52.12-15.85 53.5-14.9 55.45-14.35 57.4-13.8 59.35-13.13 61.3-12.45 62.67-10.93 64.05-9.4 64.05-6.95L64.05-6.95Q64.05-3.65 61.57-1.73 59.1 0.2 54.55 0.2 50 0.2 47-1.95L47-1.95 47-7.7 49.4-8.05ZM81.04-22.3L81.04-22.3Q76.79-22.3 74.17-19.48 71.54-16.65 71.54-11.55L71.54-11.55Q71.54-2.7 79.79-2.7L79.79-2.7Q82.99-2.7 85.14-3.23 87.29-3.75 87.49-3.9L87.49-3.9 88.19-1.55Q87.04-0.8 84.39-0.3 81.74 0.2 79.59 0.2 77.44 0.2 75.69-0.25 73.94-0.7 72.17-1.85 70.39-3 69.34-5.48 68.29-7.95 68.29-11.5L68.29-11.5Q68.29-18.05 71.64-21.4L71.64-21.4Q75.39-25.25 81.09-25.25L81.09-25.25Q82.89-25.25 84.92-24.78 86.94-24.3 88.04-23.3L88.04-23.3 88.04-16.75 85.59-16.4 85.34-21.65Q83.29-22.3 81.04-22.3ZM102.62 0.2Q97.39 0.2 94.17-2.8 90.94-5.8 90.94-11.98 90.94-18.15 94.37-21.68 97.79-25.2 102.99-25.2 108.19-25.2 111.44-22.2 114.69-19.2 114.69-13.03 114.69-6.85 111.27-3.33 107.84 0.2 102.62 0.2ZM102.92-22.3Q99.19-22.3 96.69-19.6 94.19-16.9 94.19-12.28 94.19-7.65 96.57-5.18 98.94-2.7 102.69-2.7 106.44-2.7 108.94-5.38 111.44-8.05 111.44-12.68 111.44-17.3 109.04-19.8 106.64-22.3 102.92-22.3ZM136.54-22.5L133.74-22.5 133.74-25 142.94-25 142.94-22.5 139.99-22.5 130.94 0 127.94 0 119.59-22.5 116.19-22.5 116.19-25 126.74-25 126.74-22.5 123.24-22.5 129.59-3.85 136.54-22.5ZM147.04-11.2L147.04-11.2Q147.04-6.75 149.59-4.73 152.14-2.7 155.54-2.7L155.54-2.7Q157.74-2.7 160.06-3.13 162.39-3.55 163.14-3.9L163.14-3.9 163.79-1.55Q162.64-0.8 160.01-0.3 157.39 0.2 155.21 0.2 153.04 0.2 151.31-0.25 149.59-0.7 147.79-1.85 145.99-3 144.94-5.45 143.89-7.9 143.89-11.45L143.89-11.45Q143.89-18.05 147.29-21.55L147.29-21.55Q150.84-25.2 155.54-25.2 160.24-25.2 162.71-22.6 165.19-20 165.19-15.3L165.19-15.3Q165.19-14.3 165.04-13.15L165.04-13.15 147.19-13.15Q147.04-12.1 147.04-11.2ZM162.19-15.65L162.19-15.65Q162.19-18.75 160.34-20.43 158.49-22.1 156.04-22.1L156.04-22.1Q152.69-22.1 150.49-20.08 148.29-18.05 147.54-15.1L147.54-15.1 162.19-15.1Q162.19-15.4 162.19-15.65ZM174.98-16.75L174.98-2.5 179.13-2.5 179.13 0 168.63 0 168.63-2.5 171.73-2.5 171.73-22.5 168.38-22.5 168.38-25 174.98-25 174.98-18.95Q178.93-24.75 182.73-24.85L182.73-24.85Q183.03-24.85 183.33-24.85L183.33-24.85 186.13-24.5 184.83-21.5Q183.88-21.95 182.38-21.95L182.38-21.95Q178.78-21.9 174.98-16.75L174.98-16.75ZM207.48-32.25L204.08-32.25 204.08-35 214.18-35 214.18-32.25 211.03-32.25 220.43-14.6 229.38-32.25 226.33-32.25 226.33-35 236.13-35 236.13-32.25 232.78-32.25 222.03-11.8 222.03-2.75 225.63-2.75 225.63 0 215.63 0 215.63-2.75 218.88-2.75 218.88-11.8 207.48-32.25ZM245.6 0.2Q240.38 0.2 237.15-2.8 233.93-5.8 233.93-11.98 233.93-18.15 237.35-21.68 240.78-25.2 245.98-25.2 251.18-25.2 254.43-22.2 257.68-19.2 257.68-13.03 257.68-6.85 254.25-3.33 250.83 0.2 245.6 0.2ZM245.9-22.3Q242.18-22.3 239.68-19.6 237.18-16.9 237.18-12.28 237.18-7.65 239.55-5.18 241.93-2.7 245.68-2.7 249.43-2.7 251.93-5.38 254.43-8.05 254.43-12.68 254.43-17.3 252.03-19.8 249.63-22.3 245.9-22.3ZM281.12 0L280.62-2.9Q276.07 0.15 272.02 0.15L272.02 0.15Q270.32 0.15 268.02-0.7L268.02-0.7Q266.52-1.25 265.62-2.78 264.72-4.3 264.72-6.6L264.72-6.6 264.72-22.5 261.22-22.5 261.22-25 267.97-25 267.97-7.6Q267.97-5.85 268.72-4.73 269.47-3.6 270.62-3.25L270.62-3.25Q272.52-2.65 273.67-2.75L273.67-2.75Q276.67-2.8 280.62-4.9L280.62-4.9 280.62-22.5 277.12-22.5 277.12-25 283.87-25 283.87-2.5 287.72-2.5 287.72 0 281.12 0ZM296.62-16.75L296.62-2.5 300.77-2.5 300.77 0 290.27 0 290.27-2.5 293.37-2.5 293.37-22.5 290.02-22.5 290.02-25 296.62-25 296.62-18.95Q300.57-24.75 304.37-24.85L304.37-24.85Q304.67-24.85 304.97-24.85L304.97-24.85 307.77-24.5 306.47-21.5Q305.52-21.95 304.02-21.95L304.02-21.95Q300.42-21.9 296.62-16.75L296.62-16.75ZM330.47-32.25L327.32-32.25 327.32-35 337.72-35Q343.87-35 346.84-32.9 349.82-30.8 349.82-24.98 349.82-19.15 346.74-16.38 343.67-13.6 337.72-13.6L337.72-13.6 333.87-13.6 333.87-2.75 337.42-2.75 337.42 0 327.32 0 327.32-2.75 330.47-2.75 330.47-32.25ZM337.47-32.25L337.47-32.25 333.87-32.25 333.87-16.35 337.47-16.35Q341.97-16.35 344.19-18.32 346.42-20.3 346.42-24.78 346.42-29.25 344.22-30.75 342.02-32.25 337.47-32.25ZM356.21-11.2L356.21-11.2Q356.21-6.75 358.76-4.73 361.31-2.7 364.71-2.7L364.71-2.7Q366.91-2.7 369.24-3.13 371.56-3.55 372.31-3.9L372.31-3.9 372.96-1.55Q371.81-0.8 369.19-0.3 366.56 0.2 364.39 0.2 362.21 0.2 360.49-0.25 358.76-0.7 356.96-1.85 355.16-3 354.11-5.45 353.06-7.9 353.06-11.45L353.06-11.45Q353.06-18.05 356.46-21.55L356.46-21.55Q360.01-25.2 364.71-25.2 369.41-25.2 371.89-22.6 374.36-20 374.36-15.3L374.36-15.3Q374.36-14.3 374.21-13.15L374.21-13.15 356.36-13.15Q356.21-12.1 356.21-11.2ZM371.36-15.65L371.36-15.65Q371.36-18.75 369.51-20.43 367.66-22.1 365.21-22.1L365.21-22.1Q361.86-22.1 359.66-20.08 357.46-18.05 356.71-15.1L356.71-15.1 371.36-15.1Q371.36-15.4 371.36-15.65ZM384.16-16.75L384.16-2.5 388.31-2.5 388.31 0 377.81 0 377.81-2.5 380.91-2.5 380.91-22.5 377.56-22.5 377.56-25 384.16-25 384.16-18.95Q388.11-24.75 391.91-24.85L391.91-24.85Q392.21-24.85 392.51-24.85L392.51-24.85 395.31-24.5 394.01-21.5Q393.06-21.95 391.56-21.95L391.56-21.95Q387.96-21.9 384.16-16.75L384.16-16.75ZM399.91-31.05Q399.91-34.5 402.16-36.02 404.41-37.55 406.91-37.55 409.41-37.55 410.81-37L410.81-37 410.66-34.65Q409.46-34.8 408.58-34.8 407.71-34.8 406.88-34.63 406.06-34.45 405.16-34L405.16-34Q403.16-32.9 403.16-29.9L403.16-29.9 403.16-25 409.21-25 409.21-22.1 403.16-22.1 403.16-2.5 407.41-2.5 407.41 0 396.81 0 396.81-2.5 399.91-2.5 399.91-22.1 397.36-22.1 397.76-24.5 399.91-24.95 399.91-31.05ZM416.01-11.2L416.01-11.2Q416.01-6.75 418.56-4.73 421.11-2.7 424.51-2.7L424.51-2.7Q426.71-2.7 429.03-3.13 431.36-3.55 432.11-3.9L432.11-3.9 432.76-1.55Q431.61-0.8 428.98-0.3 426.36 0.2 424.18 0.2 422.01 0.2 420.28-0.25 418.56-0.7 416.76-1.85 414.96-3 413.91-5.45 412.86-7.9 412.86-11.45L412.86-11.45Q412.86-18.05 416.26-21.55L416.26-21.55Q419.81-25.2 424.51-25.2 429.21-25.2 431.68-22.6 434.16-20 434.16-15.3L434.16-15.3Q434.16-14.3 434.01-13.15L434.01-13.15 416.16-13.15Q416.01-12.1 416.01-11.2ZM431.16-15.65L431.16-15.65Q431.16-18.75 429.31-20.43 427.46-22.1 425.01-22.1L425.01-22.1Q421.66-22.1 419.46-20.08 417.26-18.05 416.51-15.1L416.51-15.1 431.16-15.1Q431.16-15.4 431.16-15.65ZM450.9-22.3L450.9-22.3Q446.65-22.3 444.03-19.48 441.4-16.65 441.4-11.55L441.4-11.55Q441.4-2.7 449.65-2.7L449.65-2.7Q452.85-2.7 455-3.23 457.15-3.75 457.35-3.9L457.35-3.9 458.05-1.55Q456.9-0.8 454.25-0.3 451.6 0.2 449.45 0.2 447.3 0.2 445.55-0.25 443.8-0.7 442.03-1.85 440.25-3 439.2-5.48 438.15-7.95 438.15-11.5L438.15-11.5Q438.15-18.05 441.5-21.4L441.5-21.4Q445.25-25.25 450.95-25.25L450.95-25.25Q452.75-25.25 454.78-24.78 456.8-24.3 457.9-23.3L457.9-23.3 457.9-16.75 455.45-16.4 455.2-21.65Q453.15-22.3 450.9-22.3ZM472.95-2.45L472.95-2.45 474.9-2.55 475.05-0.55Q475-0.55 474.35-0.4L474.35-0.4Q472.85-0.05 471-0.05L471-0.05Q469.3-0.15 467.9-0.63 466.5-1.1 465.3-2.63 464.1-4.15 464.1-6.55L464.1-6.55 464.1-22.1 461.55-22.1 461.95-24.5 464.15-24.95 464.55-29.75 467.35-30 467.35-25 473.4-25 473.4-22.1 467.35-22.1 467.35-7.4Q467.35-2.45 472.95-2.45ZM524.15 0L514.05 0 514.05-2.75 517.45-2.75 517.45-15.85 500.4-15.85 500.4-2.75 504.1-2.75 504.1 0 494 0 494-2.75 497.25-2.75 497.25-32.25 494-32.25 494-35 504.1-35 504.1-32.25 500.4-32.25 500.4-18.85 517.45-18.85 517.45-32.25 514.05-32.25 514.05-35 523.65-35 523.65-32.25 520.6-32.25 520.6-2.75 524.15-2.75 524.15 0ZM533.34 0.2L533.34 0.2Q526.69 0.2 526.29-5.05L526.29-5.05Q526.24-5.4 526.24-5.75L526.24-5.75Q526.24-9.95 531.29-11.35L531.29-11.35Q534.09-12.05 542.09-12.95L542.09-12.95 542.09-16.8Q542.09-22.25 536.39-22.25L536.39-22.25Q532.29-22.2 527.69-20.35L527.69-20.35 526.84-22.5 527.34-22.7Q531.24-24.4 533.29-24.75 535.34-25.1 536.29-25.13 537.24-25.15 538.12-25.1 538.99-25.05 540.39-24.65 541.79-24.25 542.82-23.53 543.84-22.8 544.59-21.35 545.34-19.9 545.34-17.9L545.34-17.9 545.34-2.5 549.19-2.5 549.19 0 542.59 0 542.09-1.9Q537.59 0.2 533.34 0.2ZM534.24-2.1L534.24-2.1Q538.04-2.1 542.09-3.8L542.09-3.8 542.09-10.95Q534.59-10.7 532.39-9.95L532.39-9.95Q530.69-9.5 529.99-8.33 529.29-7.15 529.29-6.45 529.29-5.75 529.29-5.5L529.29-5.5Q529.44-3.7 530.84-2.9 532.24-2.1 534.24-2.1ZM554.54-22.5L551.19-22.5 551.19-25 557.79-25 557.79-22.2Q561.89-25 565.64-25.15L565.64-25.15Q569.29-25.15 571.19-23.7L571.19-23.7Q572.04-23.05 572.72-21.68 573.39-20.3 573.39-18.4L573.39-18.4 573.39-2.5 577.24-2.5 577.24 0 567.14 0 567.14-2.5 570.14-2.5 570.14-17.15Q570.14-22 564.44-22L564.44-22Q561.34-21.9 557.79-19.95L557.79-19.95 557.79-2.5 561.54-2.5 561.54 0 551.44 0 551.44-2.5 554.54-2.5 554.54-22.5ZM578.54 5.2L578.54 5.2Q578.54 0.7 583.89-2.7L583.89-2.7Q581.79-4.2 581.79-6.28 581.79-8.35 583.59-9.65L583.59-9.65Q579.89-11.45 579.89-16.95L579.89-16.95Q579.89-20.8 582.79-23 585.69-25.2 590.19-25.2L590.19-25.2Q591.64-25.2 593.14-24.95L593.14-24.95 602.54-25.2 602.44-23.3 596.99-23.3Q599.74-21.25 599.74-17.15 599.74-13.05 596.99-10.8 594.24-8.55 589.89-8.55L589.89-8.55Q587.09-8.55 585.24-9.05L585.24-9.05Q584.29-8.15 584.29-6.75 584.29-5.35 586.01-4.58 587.74-3.8 590.46-3.43 593.19-3.05 594.44-2.78 595.69-2.5 597.34-1.9 598.99-1.3 599.99-0.5L599.99-0.5Q602.34 1.45 602.34 4.7L602.34 4.7Q602.34 6.95 601.29 8.55 600.24 10.15 598.39 11L598.39 11Q594.99 12.5 590.29 12.5L590.29 12.5Q584.04 12.5 581.29 10.35 578.54 8.2 578.54 5.2ZM581.79 4.85L581.79 4.85Q581.79 6.9 583.79 8.25 585.79 9.6 589.89 9.6L589.89 9.6Q599.09 9.6 599.09 4.7L599.09 4.7Q599.09 2.25 596.89 1.2L596.89 1.2Q594.99 0.25 592.69-0.2L592.69-0.2Q587.79-0.9 585.64-1.75L585.64-1.75Q581.79 1.4 581.79 4.85ZM590.04-22.55Q586.94-22.55 585.04-21.13 583.14-19.7 583.14-16.88 583.14-14.05 584.61-12.63 586.09-11.2 589.34-11.2 592.59-11.2 594.46-12.83 596.34-14.45 596.34-17.25L596.34-17.25Q596.34-22.55 590.04-22.55L590.04-22.55ZM616.46 0.2Q611.23 0.2 608.01-2.8 604.78-5.8 604.78-11.98 604.78-18.15 608.21-21.68 611.63-25.2 616.83-25.2 622.03-25.2 625.28-22.2 628.53-19.2 628.53-13.03 628.53-6.85 625.11-3.33 621.68 0.2 616.46 0.2ZM616.76-22.3Q613.03-22.3 610.53-19.6 608.03-16.9 608.03-12.28 608.03-7.65 610.41-5.18 612.78-2.7 616.53-2.7 620.28-2.7 622.78-5.38 625.28-8.05 625.28-12.68 625.28-17.3 622.88-19.8 620.48-22.3 616.76-22.3ZM651.98 0L651.48-2.9Q646.93 0.15 642.88 0.15L642.88 0.15Q641.18 0.15 638.88-0.7L638.88-0.7Q637.38-1.25 636.48-2.78 635.58-4.3 635.58-6.6L635.58-6.6 635.58-22.5 632.08-22.5 632.08-25 638.83-25 638.83-7.6Q638.83-5.85 639.58-4.73 640.33-3.6 641.48-3.25L641.48-3.25Q643.38-2.65 644.53-2.75L644.53-2.75Q647.53-2.8 651.48-4.9L651.48-4.9 651.48-22.5 647.98-22.5 647.98-25 654.73-25 654.73-2.5 658.58-2.5 658.58 0 651.98 0ZM671.93-2.45L671.93-2.45 673.88-2.55 674.03-0.55Q673.98-0.55 673.33-0.4L673.33-0.4Q671.83-0.05 669.98-0.05L669.98-0.05Q668.28-0.15 666.88-0.63 665.48-1.1 664.28-2.63 663.08-4.15 663.08-6.55L663.08-6.55 663.08-22.1 660.53-22.1 660.93-24.5 663.13-24.95 663.53-29.75 666.33-30 666.33-25 672.38-25 672.38-22.1 666.33-22.1 666.33-7.4Q666.33-2.45 671.93-2.45ZM702.87-2.95L702.87-2.95Q708.42-2.95 711.12-5.75L711.12-5.75Q712.67-7.35 712.67-9.55 712.67-11.75 711.6-13.18 710.52-14.6 708.82-15.38 707.12-16.15 705.05-16.73 702.97-17.3 700.9-17.95 698.82-18.6 697.12-19.5 695.42-20.4 694.35-22.05 693.27-23.7 693.27-26L693.27-26Q693.27-30 696.27-32.55 699.27-35.1 704.22-35.1 709.17-35.1 713.52-34.1L713.52-34.1 713.52-34.05 713.67-34.05 714.22-27.8 711.77-27.4 711.22-31.6Q708.42-32.1 705.05-32.1 701.67-32.1 699.17-30.63 696.67-29.15 696.67-26.45 696.67-23.75 698.67-22.35 700.67-20.95 703.52-20.23 706.37-19.5 709.22-18.6 712.07-17.7 714.07-15.5 716.07-13.3 716.07-9.7L716.07-9.7Q716.07-4.85 712.47-2.4 708.87 0.05 703.52 0.05L703.52 0.05Q696.77 0.05 692.22-3L692.22-3 692.27-8.3 694.72-8.55 694.82-4.75Q698.62-2.95 702.87-2.95ZM722.92-22.5L719.57-22.5 719.57-25 726.17-25 726.17-23.15Q729.32-25.45 732.87-25.45L732.87-25.45Q736.27-25.45 739.27-23.35L739.27-23.35Q740.87-22.2 741.85-19.75 742.82-17.3 742.82-13.8L742.82-13.8Q742.82-7.15 739.52-3.8L739.52-3.8Q735.77 0 729.82 0L729.82 0Q728.07 0 726.17-0.25L726.17-0.25 726.17 10 730.42 10 730.42 12.5 719.82 12.5 719.82 10 722.92 10 722.92-22.5ZM726.17-21.1L726.17-21.1 726.17-2.8Q727.62-2.45 729.32-2.45L729.32-2.45Q734.27-2.45 736.92-5.35 739.57-8.25 739.57-13.55L739.57-13.55Q739.57-19.7 735.97-21.6L735.97-21.6Q734.22-22.55 731.92-22.55 729.62-22.55 726.17-21.1ZM758.49 0.2Q753.27 0.2 750.04-2.8 746.82-5.8 746.82-11.98 746.82-18.15 750.24-21.68 753.67-25.2 758.87-25.2 764.07-25.2 767.32-22.2 770.57-19.2 770.57-13.03 770.57-6.85 767.14-3.33 763.72 0.2 758.49 0.2ZM758.79-22.3Q755.07-22.3 752.57-19.6 750.07-16.9 750.07-12.28 750.07-7.65 752.44-5.18 754.82-2.7 758.57-2.7 762.32-2.7 764.82-5.38 767.32-8.05 767.32-12.68 767.32-17.3 764.92-19.8 762.52-22.3 758.79-22.3ZM784.52-2.45L784.52-2.45 786.47-2.55 786.62-0.55Q786.57-0.55 785.92-0.4L785.92-0.4Q784.42-0.05 782.57-0.05L782.57-0.05Q780.87-0.15 779.47-0.63 778.07-1.1 776.87-2.63 775.67-4.15 775.67-6.55L775.67-6.55 775.67-22.1 773.12-22.1 773.52-24.5 775.72-24.95 776.12-29.75 778.92-30 778.92-25 784.97-25 784.97-22.1 778.92-22.1 778.92-7.4Q778.92-2.45 784.52-2.45ZM794.71-35L794.71-6.45 791.71-6.45 791.71-34.75 794.71-35ZM791.94-0.53Q791.41-1.05 791.41-1.75 791.41-2.45 791.94-2.98 792.46-3.5 793.16-3.5 793.86-3.5 794.39-2.98 794.91-2.45 794.91-1.75 794.91-1.05 794.39-0.53 793.86 0 793.16 0 792.46 0 791.94-0.53Z" opacity="1" transform="matrix(1,0,0,1,0,0)" fill="#c56e33" class="slogan-text-1" data-fill-palette-color="secondary" id="text-1"></path></svg></g></svg></g></svg></g></svg></g><g transform="matrix(1,0,0,1,108.08696029102676,0)"><svg viewBox="0 0 179.34607941794647 179.34607941794647" height="179.34607941794647" width="179.34607941794647"><g><svg></svg></g><g id="icon-0"><svg viewBox="0 0 179.34607941794647 179.34607941794647" height="179.34607941794647" width="179.34607941794647"><g><path d="M0 89.673c0-49.525 40.148-89.673 89.673-89.673 49.525 0 89.673 40.148 89.673 89.673 0 49.525-40.148 89.673-89.673 89.673-49.525 0-89.673-40.148-89.673-89.673zM89.673 175.094c47.177 0 85.421-38.244 85.421-85.421 0-47.177-38.244-85.421-85.421-85.421-47.177 0-85.421 38.244-85.421 85.421 0 47.177 38.244 85.421 85.421 85.421z" data-fill-palette-color="accent" fill="#c56e33" stroke="transparent"></path><ellipse rx="88.77630931188351" ry="88.77630931188351" cx="89.67303970897323" cy="89.67303970897323" fill="#c56e33" stroke="transparent" stroke-width="0" fill-opacity="1" data-fill-palette-color="accent"></ellipse></g><g transform="matrix(1,0,0,1,37.85466396404734,37.91321580104726)"><svg viewBox="0 0 103.63675148985179 103.51964781585195" height="103.51964781585195" width="103.63675148985179"><g><svg xmlns="http://www.w3.org/2000/svg" xmlns:xlink="http://www.w3.org/1999/xlink" version="1.1" x="0" y="0" viewBox="6.5 6.5 88.5 88.4" enable-background="new 0 0 100 100" xml:space="preserve" height="103.51964781585195" width="103.63675148985179" class="icon-dxe-0" data-fill-palette-color="quaternary" id="dxe-0"><path d="M64.9 58.2C69 52.6 71.3 45.8 71.3 38.9 71.3 21 56.8 6.5 38.9 6.5S6.5 21 6.5 38.9 21 71.3 38.9 71.3C45.9 71.3 52.7 69 58.3 64.8L85.7 92.2 88.4 94.9 95 88.3zM61.9 38.9C61.9 51.6 51.6 61.9 38.9 61.9S15.9 51.6 15.9 38.9 26.2 15.9 38.9 15.9 61.9 26.2 61.9 38.9" fill="#ffffff" data-fill-palette-color="quaternary"></path></svg></g></svg></g></svg></g></svg></g><g></g></svg></g><defs></defs></svg><rect width="355.1157832887624" height="247.2" fill="none" stroke="none" visibility="hidden"></rect></g></svg></g></svg>